<svg width="133" height="50" viewBox="0 0 133 50" fill="none" xmlns="http://www.w3.org/2000/svg">
<rect width="50" height="50" rx="5" fill="url(#paint0_linear_327_328)"/>
<path d="M13.3728 29.3779H11V20.6099H14.691C17.1266 20.6099 18.5202 21.6723 18.5202 23.5407C18.5202 24.6642 17.8297 25.5923 16.6119 26.0929L18.8215 29.3779H15.9967L14.1512 26.4593H13.3728V29.3779ZM13.3728 22.5149V24.5543H14.5906C15.6452 24.5543 16.1348 24.2368 16.1348 23.5407C16.1348 22.8446 15.6452 22.5149 14.5906 22.5149H13.3728Z" fill="#7DA6FF"/>
<path d="M23.9689 29.3779L22.0355 24.3223V29.3779H19.8887V20.6099H22.6884L24.9607 26.557L27.2205 20.6099H30.0202V29.3779H27.8734V24.2612L25.9274 29.3779H23.9689Z" fill="#7DA6FF"/>
<path d="M39 26.5081C39 28.3155 37.5186 29.5 35.1709 29.5C32.8232 29.5 31.3166 28.291 31.1534 26.3494H33.5513C33.5765 27.1798 34.1414 27.7049 35.1207 27.7049C35.9367 27.7049 36.4765 27.3996 36.4765 26.8501C36.4765 26.4715 36.0874 26.1906 35.5601 26.0929L33.9154 25.7877C32.4717 25.519 31.5175 24.7008 31.5175 23.2843C31.5175 21.6479 32.9989 20.5 35.0202 20.5C37.167 20.5 38.7112 21.6967 38.8493 23.5896H36.4514C36.3887 22.7958 35.8363 22.2829 35.0453 22.2829C34.3423 22.2829 33.9154 22.6493 33.9154 23.1255C33.9154 23.5163 34.3172 23.7483 34.7942 23.8338L36.5393 24.1635C38.1463 24.4688 39 25.2381 39 26.5081Z" fill="#7DA6FF"/>
<path d="M56.712 16H54.888V7.384H58.26C60.432 7.384 61.692 8.392 61.692 10.18C61.692 11.344 60.972 12.268 59.748 12.676L61.968 16H59.796L57.852 12.952H56.712V16ZM56.712 8.896V11.452H58.176C59.28 11.452 59.868 11.02 59.868 10.18C59.868 9.328 59.28 8.896 58.176 8.896H56.712ZM65.5213 16.12C63.6613 16.12 62.2693 14.656 62.2693 12.796C62.2693 10.924 63.6613 9.472 65.5213 9.472C67.3813 9.472 68.7733 10.924 68.7733 12.796C68.7733 14.656 67.3813 16.12 65.5213 16.12ZM65.5213 14.644C66.3493 14.644 67.0573 13.984 67.0573 12.796C67.0573 11.608 66.3493 10.96 65.5213 10.96C64.6933 10.96 63.9853 11.608 63.9853 12.796C63.9853 13.984 64.6933 14.644 65.5213 14.644ZM73.7378 13.3V9.592H75.3938V16H73.8698V15.16C73.5218 15.724 72.8138 16.12 71.9978 16.12C70.7138 16.12 69.7778 15.34 69.7778 13.672V9.592H71.4458V13.348C71.4458 14.248 71.8898 14.644 72.5618 14.644C73.1618 14.644 73.7378 14.164 73.7378 13.3ZM80.8764 14.38V15.832C80.4684 16.036 80.0844 16.12 79.5924 16.12C78.2724 16.12 77.4444 15.364 77.4444 13.924V11.02H76.1484V9.592H77.4444V7.696H79.1004V9.592H80.9364V11.02H79.1004V13.54C79.1004 14.284 79.4364 14.584 80.0364 14.584C80.3484 14.584 80.6364 14.512 80.8764 14.38ZM83.8869 8.104C83.8869 8.668 83.4309 9.088 82.7709 9.088C82.1229 9.088 81.6669 8.668 81.6669 8.104C81.6669 7.516 82.1229 7.096 82.7709 7.096C83.4309 7.096 83.8869 7.516 83.8869 8.104ZM83.6229 16H81.9549V9.592H83.6229V16ZM86.7753 12.508V16H85.1073V9.592H86.6433V10.504C87.1113 9.868 87.7713 9.472 88.6113 9.472C89.8953 9.472 90.7833 10.312 90.7833 11.86V16H89.1273V12.424C89.1273 11.476 88.7553 10.948 87.9993 10.948C87.3393 10.948 86.7753 11.476 86.7753 12.508ZM95.0046 16.108C93.0846 16.108 91.8006 14.776 91.8006 12.772C91.8006 10.864 93.1326 9.472 94.9806 9.472C97.0086 9.472 98.3526 11.116 98.0526 13.204H93.5046C93.6126 14.248 94.1166 14.824 94.9686 14.824C95.7006 14.824 96.1926 14.464 96.3846 13.828H98.0406C97.6806 15.28 96.5646 16.108 95.0046 16.108ZM94.9446 10.696C94.1646 10.696 93.6726 11.2 93.5286 12.148H96.2886C96.2406 11.26 95.7366 10.696 94.9446 10.696ZM58.8 30L56.544 24.276V30H54.888V21.384H57.072L59.568 27.768L62.076 21.384H64.26V30H62.604V24.228L60.324 30H58.8ZM69.6928 30V29.208C69.2728 29.808 68.6368 30.12 67.7608 30.12C66.4288 30.12 65.5408 29.34 65.5408 28.14C65.5408 26.892 66.5488 26.22 68.4208 26.22C68.7808 26.22 69.0928 26.244 69.4888 26.292V25.908C69.4888 25.188 69.0808 24.768 68.3848 24.768C67.6648 24.768 67.2328 25.188 67.1728 25.908H65.6728C65.7688 24.432 66.8368 23.472 68.3848 23.472C70.0648 23.472 71.0488 24.396 71.0488 25.968V30H69.6928ZM67.1128 28.092C67.1128 28.632 67.4968 28.968 68.1208 28.968C68.9728 28.968 69.4888 28.5 69.4888 27.756V27.3C69.0928 27.24 68.8168 27.216 68.5288 27.216C67.5808 27.216 67.1128 27.516 67.1128 28.092ZM74.1542 26.508V30H72.4862V23.592H74.0222V24.504C74.4902 23.868 75.1502 23.472 75.9902 23.472C77.2742 23.472 78.1622 24.312 78.1622 25.86V30H76.5062V26.424C76.5062 25.476 76.1342 24.948 75.3782 24.948C74.7182 24.948 74.1542 25.476 74.1542 26.508ZM83.4155 30V29.208C82.9955 29.808 82.3595 30.12 81.4835 30.12C80.1515 30.12 79.2635 29.34 79.2635 28.14C79.2635 26.892 80.2715 26.22 82.1435 26.22C82.5035 26.22 82.8155 26.244 83.2115 26.292V25.908C83.2115 25.188 82.8035 24.768 82.1075 24.768C81.3875 24.768 80.9555 25.188 80.8955 25.908H79.3955C79.4915 24.432 80.5595 23.472 82.1075 23.472C83.7875 23.472 84.7715 24.396 84.7715 25.968V30H83.4155ZM80.8355 28.092C80.8355 28.632 81.2195 28.968 81.8435 28.968C82.6955 28.968 83.2115 28.5 83.2115 27.756V27.3C82.8155 27.24 82.5395 27.216 82.2515 27.216C81.3035 27.216 80.8355 27.516 80.8355 28.092ZM88.9328 32.436C87.2048 32.436 86.0528 31.5 85.9808 30.024H87.5888C87.6608 30.756 88.1288 31.14 88.9208 31.14C89.8448 31.14 90.3248 30.648 90.3248 29.724V28.788C89.9768 29.4 89.3168 29.76 88.5368 29.76C86.9648 29.76 85.7888 28.428 85.7888 26.616C85.7888 24.756 86.8928 23.472 88.4768 23.472C89.3408 23.472 89.9888 23.808 90.4568 24.468V23.592H91.9808V29.7C91.9808 31.404 90.8288 32.436 88.9328 32.436ZM87.4568 26.616C87.4568 27.66 87.9968 28.32 88.8608 28.32C89.7368 28.32 90.3128 27.636 90.3128 26.628C90.3128 25.584 89.7368 24.912 88.8608 24.912C88.0088 24.912 87.4568 25.572 87.4568 26.616ZM96.2702 30.108C94.3502 30.108 93.0662 28.776 93.0662 26.772C93.0662 24.864 94.3982 23.472 96.2462 23.472C98.2742 23.472 99.6182 25.116 99.3182 27.204H94.7702C94.8782 28.248 95.3822 28.824 96.2342 28.824C96.9662 28.824 97.4582 28.464 97.6502 27.828H99.3062C98.9462 29.28 97.8302 30.108 96.2702 30.108ZM96.2102 24.696C95.4302 24.696 94.9382 25.2 94.7942 26.148H97.5542C97.5062 25.26 97.0022 24.696 96.2102 24.696ZM102.103 30H100.435V23.592H101.971V24.504C102.439 23.856 103.039 23.472 103.891 23.472C104.767 23.472 105.439 23.88 105.763 24.612C106.267 23.904 106.915 23.472 107.875 23.472C109.171 23.472 110.047 24.324 110.047 25.86V30H108.391V26.388C108.391 25.488 108.007 24.948 107.275 24.948C106.615 24.948 106.075 25.464 106.075 26.424V30H104.419V26.388C104.419 25.488 104.035 24.948 103.303 24.948C102.631 24.948 102.103 25.464 102.103 26.424V30ZM114.258 30.108C112.338 30.108 111.054 28.776 111.054 26.772C111.054 24.864 112.386 23.472 114.234 23.472C116.262 23.472 117.606 25.116 117.306 27.204H112.758C112.866 28.248 113.37 28.824 114.222 28.824C114.954 28.824 115.446 28.464 115.638 27.828H117.294C116.934 29.28 115.818 30.108 114.258 30.108ZM114.198 24.696C113.418 24.696 112.926 25.2 112.782 26.148H115.542C115.494 25.26 114.99 24.696 114.198 24.696ZM120.092 26.508V30H118.424V23.592H119.96V24.504C120.428 23.868 121.088 23.472 121.928 23.472C123.212 23.472 124.1 24.312 124.1 25.86V30H122.444V26.424C122.444 25.476 122.072 24.948 121.316 24.948C120.656 24.948 120.092 25.476 120.092 26.508ZM129.474 28.38V29.832C129.066 30.036 128.682 30.12 128.19 30.12C126.87 30.12 126.042 29.364 126.042 27.924V25.02H124.746V23.592H126.042V21.696H127.698V23.592H129.534V25.02H127.698V27.54C127.698 28.284 128.034 28.584 128.634 28.584C128.946 28.584 129.234 28.512 129.474 28.38ZM61.5 41.324C61.5 42.968 60.18 44.12 58.02 44.12C55.848 44.12 54.492 42.956 54.36 41.132H56.208C56.256 42.08 56.868 42.692 57.984 42.692C58.908 42.692 59.568 42.284 59.568 41.588C59.568 41.048 59.148 40.724 58.416 40.58L57 40.304C55.692 40.052 54.684 39.344 54.684 37.916C54.684 36.38 56.04 35.276 57.9 35.276C59.832 35.276 61.248 36.404 61.368 38.204H59.52C59.46 37.304 58.836 36.692 57.924 36.692C57.036 36.692 56.532 37.196 56.532 37.796C56.532 38.384 57.072 38.636 57.696 38.756L59.172 39.056C60.684 39.356 61.5 40.052 61.5 41.324ZM68.4496 37.592L65.3296 46.316H63.5176L64.4296 43.928L61.9096 37.592H63.7096L65.3176 41.984L66.7816 37.592H68.4496ZM74.4294 41.948C74.4294 43.292 73.4094 44.12 71.5854 44.12C69.7614 44.12 68.7414 43.244 68.6094 41.816H70.2054C70.2174 42.476 70.7814 42.896 71.6094 42.896C72.2574 42.896 72.7494 42.692 72.7494 42.236C72.7494 41.828 72.4854 41.66 71.8734 41.54L70.7214 41.324C69.5694 41.12 68.8734 40.484 68.8734 39.488C68.8734 38.3 69.8934 37.472 71.4894 37.472C73.0974 37.472 74.2014 38.324 74.3214 39.704H72.7254C72.6654 39.08 72.1974 38.696 71.4894 38.696C70.8774 38.696 70.4694 38.924 70.4694 39.332C70.4694 39.716 70.7334 39.872 71.3094 39.98L72.5454 40.208C73.7934 40.448 74.4294 41.024 74.4294 41.948ZM79.4233 42.38V43.832C79.0153 44.036 78.6313 44.12 78.1393 44.12C76.8193 44.12 75.9913 43.364 75.9913 41.924V39.02H74.6953V37.592H75.9913V35.696H77.6473V37.592H79.4833V39.02H77.6473V41.54C77.6473 42.284 77.9833 42.584 78.5833 42.584C78.8953 42.584 79.1833 42.512 79.4233 42.38ZM83.1452 44.108C81.2252 44.108 79.9412 42.776 79.9412 40.772C79.9412 38.864 81.2732 37.472 83.1212 37.472C85.1492 37.472 86.4932 39.116 86.1932 41.204H81.6452C81.7532 42.248 82.2572 42.824 83.1092 42.824C83.8412 42.824 84.3332 42.464 84.5252 41.828H86.1812C85.8212 43.28 84.7052 44.108 83.1452 44.108ZM83.0852 38.696C82.3052 38.696 81.8132 39.2 81.6692 40.148H84.4292C84.3812 39.26 83.8772 38.696 83.0852 38.696ZM88.9784 44H87.3104V37.592H88.8464V38.504C89.3144 37.856 89.9144 37.472 90.7664 37.472C91.6424 37.472 92.3144 37.88 92.6384 38.612C93.1424 37.904 93.7904 37.472 94.7504 37.472C96.0464 37.472 96.9224 38.324 96.9224 39.86V44H95.2664V40.388C95.2664 39.488 94.8824 38.948 94.1504 38.948C93.4904 38.948 92.9504 39.464 92.9504 40.424V44H91.2944V40.388C91.2944 39.488 90.9104 38.948 90.1784 38.948C89.5064 38.948 88.9784 39.464 88.9784 40.424V44Z" fill="#192133"/>
<defs>
<linearGradient id="paint0_linear_327_328" x1="0" y1="0" x2="50.25" y2="50.75" gradientUnits="userSpaceOnUse">
<stop stop-color="#062873"/>
<stop offset="1" stop-color="#215BD9"/>
</linearGradient>
</defs>
</svg>
