<svg width="22" height="20" viewBox="0 0 22 20" fill="none" xmlns="http://www.w3.org/2000/svg">
<path d="M2.00001 6.268C1.6951 6.44404 1.44206 6.69745 1.26647 7.00263C1.09088 7.3078 0.998962 7.65392 1.00001 8.006V17C1.00001 17.5304 1.21072 18.0391 1.5858 18.4142C1.96087 18.7893 2.46958 19 3.00001 19H14C14.3511 19 14.696 18.9076 15 18.732C15.304 18.5565 15.5565 18.304 15.732 18M19 3C19.5304 3 20.0391 3.21071 20.4142 3.58579C20.7893 3.96086 21 4.46957 21 5V12C21 12.5304 20.7893 13.0391 20.4142 13.4142C20.0391 13.7893 19.5304 14 19 14H8.00001C7.46958 14 6.96087 13.7893 6.58579 13.4142C6.21072 13.0391 6.00001 12.5304 6.00001 12V3C6.00001 2.46957 6.21072 1.96086 6.58579 1.58579C6.96087 1.21071 7.46958 1 8.00001 1H10.5C10.7329 1 10.9625 1.05422 11.1708 1.15836C11.3791 1.2625 11.5603 1.41371 11.7 1.6L12.3 2.4C12.4397 2.58629 12.6209 2.7375 12.8292 2.84164C13.0375 2.94578 13.2671 3 13.5 3H19Z" stroke="black" stroke-width="2" stroke-linecap="round" stroke-linejoin="round"/>
</svg>
