<svg width="18" height="20" viewBox="0 0 18 20" fill="none" xmlns="http://www.w3.org/2000/svg">
<path d="M11.4167 0.75V4.35C11.4167 4.82739 11.604 5.28523 11.9374 5.62279C12.2708 5.96036 12.7229 6.15 13.1944 6.15H16.75M13.1944 18.75H14.9722C15.4437 18.75 15.8959 18.5604 16.2293 18.2228C16.5627 17.8852 16.75 17.4274 16.75 16.95V5.25L12.3056 0.75H4.30556C3.83406 0.75 3.38187 0.939642 3.04848 1.27721C2.71508 1.61477 2.52778 2.07261 2.52778 2.55V5.25M6.08333 11.55V13.53L7.50556 14.43M11.4167 13.35C11.4167 16.3323 9.02885 18.75 6.08333 18.75C3.13781 18.75 0.75 16.3323 0.75 13.35C0.75 10.3677 3.13781 7.95 6.08333 7.95C9.02885 7.95 11.4167 10.3677 11.4167 13.35Z" stroke="black" stroke-width="1.5" stroke-linecap="round" stroke-linejoin="round"/>
</svg>
