<svg width="14" height="19" viewBox="0 0 14 19" fill="none" xmlns="http://www.w3.org/2000/svg">
<path fill-rule="evenodd" clip-rule="evenodd" d="M6.53249 0.5C6.76466 0.500029 6.98875 0.580964 7.16226 0.727452C7.33576 0.873941 7.44661 1.0758 7.47377 1.29473L7.48041 1.40003V3.35311C7.93675 3.506 8.34445 3.76693 8.66492 4.11121C8.9854 4.45548 9.20804 4.87171 9.31178 5.32051C9.41552 5.7693 9.39693 6.2358 9.25776 6.67586C9.11859 7.11592 8.86345 7.51498 8.51648 7.83528L8.37998 7.95318L10.1185 12.2463C10.8969 11.8492 11.5963 11.3259 12.1849 10.7001C12.2676 10.6108 12.3681 10.5379 12.4806 10.4857C12.5931 10.4334 12.7153 10.4029 12.8403 10.3958C12.9653 10.3887 13.0906 10.4051 13.2088 10.4442C13.3271 10.4834 13.436 10.5443 13.5293 10.6236C13.6226 10.7029 13.6984 10.799 13.7524 10.9063C13.8063 11.0136 13.8374 11.13 13.8437 11.2487C13.85 11.3675 13.8315 11.4862 13.7892 11.5981C13.7469 11.71 13.6817 11.8129 13.5973 11.9007C12.897 12.6449 12.0711 13.2733 11.1536 13.7602L10.8029 13.9375L12.1565 17.2775C12.242 17.4915 12.2384 17.7284 12.1464 17.94C12.0544 18.1516 11.881 18.3219 11.6615 18.4164C11.4419 18.5109 11.1927 18.5224 10.9645 18.4486C10.7363 18.3748 10.5463 18.2213 10.4332 18.0192L10.3877 17.9238L9.03405 14.5837C7.5122 14.9771 5.9113 15.0056 4.37502 14.6665L4.03092 14.5837L2.67729 17.9238C2.59034 18.1379 2.42051 18.3124 2.20253 18.4116C1.98456 18.5108 1.73491 18.5272 1.50464 18.4574C1.27437 18.3876 1.08087 18.237 0.963712 18.0362C0.846553 17.8355 0.814587 17.5998 0.87435 17.3774L0.908475 17.2775L4.68499 7.95318C4.31653 7.65446 4.03457 7.27131 3.86585 6.84007C3.69714 6.40884 3.64725 5.94383 3.72094 5.48916C3.79462 5.03448 3.98944 4.60523 4.28689 4.2421C4.58435 3.87898 4.97458 3.59404 5.42057 3.41431L5.58456 3.35311V1.40003C5.58456 1.16133 5.68443 0.932403 5.8622 0.763614C6.03997 0.594825 6.28108 0.5 6.53249 0.5ZM8.34965 12.8935L6.61021 8.5994L6.53249 8.6003L6.45476 8.5994L4.71532 12.8926C5.30998 13.0313 5.92015 13.1011 6.53249 13.1005C7.15811 13.1005 7.76762 13.0285 8.34965 12.8935ZM6.53249 5.00017C6.28108 5.00017 6.03997 5.09499 5.8622 5.26378C5.68443 5.43257 5.58456 5.6615 5.58456 5.9002C5.58456 6.13891 5.68443 6.36783 5.8622 6.53662C6.03997 6.70541 6.28108 6.80024 6.53249 6.80024C6.78389 6.80024 7.025 6.70541 7.20277 6.53662C7.38054 6.36783 7.48041 6.13891 7.48041 5.9002C7.48041 5.6615 7.38054 5.43257 7.20277 5.26378C7.025 5.09499 6.78389 5.00017 6.53249 5.00017Z" fill="#215BD9"/>
</svg>
