<svg width="44" height="42" viewBox="0 0 44 42" fill="none" xmlns="http://www.w3.org/2000/svg">
<rect width="44" height="41.8" rx="5.5" fill="url(#paint0_linear_648_165)"/>
<path d="M9.21018 25.7159H6.6001V16.0711H10.6602C13.3394 16.0711 14.8723 17.2397 14.8723 19.295C14.8723 20.5308 14.1127 21.5517 12.7732 22.1024L15.2037 25.7159H12.0965L10.0664 22.5054H9.21018V25.7159ZM9.21018 18.1666V20.4099H10.5497C11.7098 20.4099 12.2484 20.0606 12.2484 19.295C12.2484 18.5293 11.7098 18.1666 10.5497 18.1666H9.21018Z" fill="#7DA6FF"/>
<path d="M20.8659 25.7159L18.7392 20.1547V25.7159H16.3777V16.0711H19.4573L21.9569 22.6129L24.4427 16.0711H27.5223V25.7159H25.1608V20.0875L23.0203 25.7159H20.8659Z" fill="#7DA6FF"/>
<path d="M37.4001 22.5592C37.4001 24.5472 35.7705 25.8502 33.1881 25.8502C30.6056 25.8502 28.9484 24.5203 28.7689 22.3845H31.4066C31.4342 23.298 32.0556 23.8756 33.1328 23.8756C34.0305 23.8756 34.6243 23.5397 34.6243 22.9353C34.6243 22.5189 34.1962 22.2099 33.6162 22.1024L31.8071 21.7666C30.2189 21.4711 29.1694 20.5711 29.1694 19.0129C29.1694 17.2129 30.7989 15.9502 33.0223 15.9502C35.3838 15.9502 37.0825 17.2666 37.2344 19.3487H34.5967C34.5276 18.4756 33.92 17.9114 33.05 17.9114C32.2766 17.9114 31.8071 18.3144 31.8071 18.8383C31.8071 19.2681 32.249 19.5233 32.7738 19.6174L34.6933 19.98C36.461 20.3159 37.4001 21.1621 37.4001 22.5592Z" fill="#7DA6FF"/>
<defs>
<linearGradient id="paint0_linear_648_165" x1="0" y1="0" x2="41.9325" y2="44.5787" gradientUnits="userSpaceOnUse">
<stop stop-color="#062873"/>
<stop offset="1" stop-color="#215BD9"/>
</linearGradient>
</defs>
</svg>
