<svg width="18" height="18" viewBox="0 0 18 18" fill="none" xmlns="http://www.w3.org/2000/svg">
<path d="M6.33333 1H1.88889C1.39797 1 1 1.39797 1 1.88889V8.11111C1 8.60203 1.39797 9 1.88889 9H6.33333C6.82425 9 7.22222 8.60203 7.22222 8.11111V1.88889C7.22222 1.39797 6.82425 1 6.33333 1Z" stroke="black" stroke-width="2" stroke-linecap="round" stroke-linejoin="round"/>
<path d="M16.1111 1H11.6667C11.1757 1 10.7778 1.39797 10.7778 1.88889V4.55556C10.7778 5.04648 11.1757 5.44444 11.6667 5.44444H16.1111C16.602 5.44444 17 5.04648 17 4.55556V1.88889C17 1.39797 16.602 1 16.1111 1Z" stroke="black" stroke-width="2" stroke-linecap="round" stroke-linejoin="round"/>
<path d="M16.1111 9H11.6667C11.1757 9 10.7778 9.39797 10.7778 9.88889V16.1111C10.7778 16.602 11.1757 17 11.6667 17H16.1111C16.602 17 17 16.602 17 16.1111V9.88889C17 9.39797 16.602 9 16.1111 9Z" stroke="black" stroke-width="2" stroke-linecap="round" stroke-linejoin="round"/>
<path d="M6.33333 12.5556H1.88889C1.39797 12.5556 1 12.9535 1 13.4444V16.1111C1 16.602 1.39797 17 1.88889 17H6.33333C6.82425 17 7.22222 16.602 7.22222 16.1111V13.4444C7.22222 12.9535 6.82425 12.5556 6.33333 12.5556Z" stroke="black" stroke-width="2" stroke-linecap="round" stroke-linejoin="round"/>
</svg>
