<svg width="18" height="18" viewBox="0 0 18 18" fill="none" xmlns="http://www.w3.org/2000/svg">
<path d="M7.15 16.75V4.75C7.15 4.53783 7.06571 4.33434 6.91569 4.18431C6.76566 4.03429 6.56217 3.95 6.35 3.95H2.35C1.92565 3.95 1.51869 4.11857 1.21863 4.41863C0.918571 4.71869 0.75 5.12565 0.75 5.55V15.15C0.75 15.5743 0.918571 15.9813 1.21863 16.2814C1.51869 16.5814 1.92565 16.75 2.35 16.75H11.95C12.3743 16.75 12.7813 16.5814 13.0814 16.2814C13.3814 15.9813 13.55 15.5743 13.55 15.15V11.15C13.55 10.9378 13.4657 10.7343 13.3157 10.5843C13.1657 10.4343 12.9622 10.35 12.75 10.35H0.75M11.15 0.75H15.95C16.3918 0.75 16.75 1.10817 16.75 1.55V6.35C16.75 6.79183 16.3918 7.15 15.95 7.15H11.15C10.7082 7.15 10.35 6.79183 10.35 6.35V1.55C10.35 1.10817 10.7082 0.75 11.15 0.75Z" stroke="black" stroke-width="1.5" stroke-linecap="round" stroke-linejoin="round"/>
</svg>
