<svg width="16" height="15" viewBox="0 0 16 15" fill="none" xmlns="http://www.w3.org/2000/svg">
<path fill-rule="evenodd" clip-rule="evenodd" d="M6.75961 0.816045C6.75961 0.599617 6.67364 0.392052 6.5206 0.239014C6.36756 0.0859759 6.15999 0 5.94357 0C5.72714 0 5.51957 0.0859759 5.36654 0.239014C5.2135 0.392052 5.12752 0.599617 5.12752 0.816045V2.60373H4.73582C4.30296 2.60373 3.88783 2.77568 3.58176 3.08176C3.27568 3.38783 3.10373 3.80296 3.10373 4.23582V4.62752H1.31605C1.09962 4.62752 0.892052 4.7135 0.739014 4.86654C0.585976 5.01957 0.5 5.22714 0.5 5.44357C0.5 5.65999 0.585976 5.86756 0.739014 6.0206C0.892052 6.17364 1.09962 6.25961 1.31605 6.25961H3.10373V8.74039H1.31605C1.09962 8.74039 0.892052 8.82636 0.739014 8.9794C0.585976 9.13244 0.5 9.34001 0.5 9.55643C0.5 9.77286 0.585976 9.98043 0.739014 10.1335C0.892052 10.2865 1.09962 10.3725 1.31605 10.3725H3.10373V10.7642C3.10373 11.197 3.27568 11.6122 3.58176 11.9182C3.88783 12.2243 4.30296 12.3963 4.73582 12.3963H5.12752V14.184C5.12752 14.4004 5.2135 14.6079 5.36654 14.761C5.51957 14.914 5.72714 15 5.94357 15C6.15999 15 6.36756 14.914 6.5206 14.761C6.67364 14.6079 6.75961 14.4004 6.75961 14.184V12.3963H9.24039V14.184C9.24039 14.4004 9.32636 14.6079 9.4794 14.761C9.63244 14.914 9.84001 15 10.0564 15C10.2729 15 10.4804 14.914 10.6335 14.761C10.7865 14.6079 10.8725 14.4004 10.8725 14.184V12.3963H11.2642C11.697 12.3963 12.1122 12.2243 12.4182 11.9182C12.7243 11.6122 12.8963 11.197 12.8963 10.7642V10.3725H14.684C14.9004 10.3725 15.1079 10.2865 15.261 10.1335C15.414 9.98043 15.5 9.77286 15.5 9.55643C15.5 9.34001 15.414 9.13244 15.261 8.9794C15.1079 8.82636 14.9004 8.74039 14.684 8.74039H12.8963V6.25961H14.684C14.9004 6.25961 15.1079 6.17364 15.261 6.0206C15.414 5.86756 15.5 5.65999 15.5 5.44357C15.5 5.22714 15.414 5.01957 15.261 4.86654C15.1079 4.7135 14.9004 4.62752 14.684 4.62752H12.8963V4.23582C12.8963 3.80296 12.7243 3.38783 12.4182 3.08176C12.1122 2.77568 11.697 2.60373 11.2642 2.60373H10.8725V0.816045C10.8725 0.599617 10.7865 0.392052 10.6335 0.239014C10.4804 0.0859759 10.2729 0 10.0564 0C9.84001 0 9.63244 0.0859759 9.4794 0.239014C9.32636 0.392052 9.24039 0.599617 9.24039 0.816045V2.60373H6.75961V0.816045ZM8.44502 8.99608C8.26466 8.99608 8.09169 9.06773 7.96416 9.19526C7.83663 9.32279 7.76498 9.49576 7.76498 9.67612C7.76498 9.85648 7.83663 10.0294 7.96416 10.157C8.09169 10.2845 8.26466 10.3562 8.44502 10.3562H10.6211C10.8015 10.3562 10.9745 10.2845 11.102 10.157C11.2295 10.0294 11.3012 9.85648 11.3012 9.67612C11.3012 9.49576 11.2295 9.32279 11.102 9.19526C10.9745 9.06773 10.8015 8.99608 10.6211 8.99608H8.44502Z" fill="#215BD9"/>
</svg>
