<svg width="14" height="17" viewBox="0 0 14 17" fill="none" xmlns="http://www.w3.org/2000/svg">
<path d="M6.16595 10.5L1.22421 9.89999C0.876693 9.85999 0.650666 9.67999 0.546132 9.35999C0.441598 9.03999 0.514717 8.76666 0.765487 8.53999L9.29363 0.7C9.36314 0.633333 9.44654 0.583467 9.54385 0.5504C9.64115 0.517333 9.77321 0.500533 9.94002 0.5C10.218 0.5 10.4302 0.613333 10.5764 0.84C10.7226 1.06667 10.726 1.3 10.5864 1.54L7.83405 6.5L12.7758 7.1C13.1233 7.14 13.3493 7.32 13.4539 7.64C13.5584 7.95999 13.4853 8.23333 13.2345 8.45999L4.70637 16.3C4.63686 16.3667 4.55346 16.4168 4.45615 16.4504C4.35885 16.484 4.22679 16.5005 4.05998 16.5C3.78196 16.5 3.56984 16.3867 3.4236 16.16C3.27736 15.9333 3.27403 15.7 3.41359 15.46L6.16595 10.5Z" fill="#215BD9"/>
</svg>
