<svg width="18" height="18" viewBox="0 0 18 18" fill="none" xmlns="http://www.w3.org/2000/svg">
<path d="M4.94637 11.0348H4.1071C3.21674 11.0348 2.36285 11.3959 1.73327 12.0389C1.10369 12.6818 0.75 13.5538 0.75 14.463V16.1771M11.7034 8.99152C11.7588 8.81782 11.8672 8.66677 12.0126 8.56039C12.158 8.45401 12.333 8.39787 12.5119 8.40017C12.6907 8.40246 12.8642 8.46307 13.007 8.57315C13.1498 8.68323 13.2544 8.83703 13.3055 9.01209L13.9241 10.2565C13.9843 10.3775 14.0717 10.4822 14.1793 10.5619C14.2868 10.6416 14.4113 10.6941 14.5426 10.7151L15.914 10.9345C16.0906 10.9352 16.2625 10.9928 16.4052 11.099C16.5479 11.2052 16.6541 11.3547 16.7088 11.5262C16.7634 11.6977 16.7637 11.8824 16.7097 12.0541C16.6556 12.2257 16.5498 12.3756 16.4075 12.4823L15.4239 13.4834C15.3297 13.5791 15.2591 13.6963 15.218 13.8254C15.1768 13.9544 15.1663 14.0916 15.1872 14.2256L15.4046 15.608C15.4644 15.7813 15.4681 15.9696 15.4151 16.1452C15.3622 16.3208 15.2554 16.4743 15.1105 16.5832C14.9656 16.6921 14.7902 16.7506 14.6103 16.75C14.4304 16.7494 14.2555 16.6898 14.1112 16.58L12.8817 15.9372C12.7633 15.8752 12.6321 15.8429 12.499 15.8429C12.3659 15.8429 12.2347 15.8752 12.1163 15.9372L10.8868 16.58C10.7425 16.6889 10.568 16.7478 10.3886 16.748C10.2092 16.7482 10.0345 16.6897 9.89008 16.5811C9.74563 16.4725 9.63906 16.3195 9.58597 16.1446C9.53289 15.9696 9.53609 15.7819 9.59511 15.6089L9.81164 14.2265C9.83255 14.0924 9.822 13.9553 9.78085 13.8262C9.7397 13.6972 9.66914 13.58 9.57497 13.4842L8.60477 12.4961C8.45761 12.3919 8.3469 12.2425 8.28883 12.0696C8.23075 11.8966 8.22835 11.7093 8.28198 11.5348C8.3356 11.3604 8.44244 11.2081 8.58688 11.1C8.73132 10.992 8.9058 10.934 9.08483 10.9345L10.4554 10.7151C10.5867 10.6941 10.7112 10.6416 10.8187 10.5619C10.9263 10.4822 11.0137 10.3775 11.0739 10.2565L11.7034 8.99152ZM9.98201 4.17825C9.98201 6.07162 8.47899 7.60651 6.62492 7.60651C4.77085 7.60651 3.26782 6.07162 3.26782 4.17825C3.26782 2.28488 4.77085 0.75 6.62492 0.75C8.47899 0.75 9.98201 2.28488 9.98201 4.17825Z" stroke="black" stroke-width="1.5" stroke-linecap="round" stroke-linejoin="round"/>
</svg>
