<svg width="18" height="21" viewBox="0 0 18 21" fill="none" xmlns="http://www.w3.org/2000/svg">
<path d="M10.7499 0.75V6.45C10.7497 6.76871 10.834 7.08233 10.9949 7.362L16.5046 16.938C16.6712 17.2274 16.7557 17.553 16.7497 17.8828C16.7437 18.2126 16.6474 18.5353 16.4704 18.819C16.2933 19.1027 16.0415 19.3378 15.7398 19.501C15.4381 19.6643 15.0969 19.7501 14.7497 19.75H2.75035C2.40314 19.7501 2.0619 19.6643 1.76019 19.501C1.45849 19.3378 1.20671 19.1027 1.02964 18.819C0.852563 18.5353 0.756293 18.2126 0.750298 17.8828C0.744304 17.553 0.828791 17.2274 0.995449 16.938L6.50513 7.362C6.66601 7.08233 6.75026 6.76871 6.75012 6.45V0.75M3.20332 13.1H14.2967M5.2502 0.75H12.2498" stroke="black" stroke-width="1.5" stroke-linecap="round" stroke-linejoin="round"/>
</svg>
