<svg width="15" height="18" viewBox="0 0 15 18" fill="none" xmlns="http://www.w3.org/2000/svg">
<path d="M1.49999 10.5C1.35807 10.5005 1.21892 10.4607 1.09871 10.3852C0.978501 10.3098 0.88217 10.2018 0.820907 10.0737C0.759644 9.94572 0.735964 9.80294 0.752619 9.66199C0.769274 9.52105 0.825579 9.38772 0.914994 9.2775L8.33999 1.6275C8.39569 1.56321 8.47159 1.51977 8.55523 1.5043C8.63887 1.48883 8.72529 1.50226 8.80029 1.54238C8.8753 1.5825 8.93443 1.64692 8.968 1.72508C9.00156 1.80324 9.00755 1.89049 8.98499 1.9725L7.54499 6.4875C7.50253 6.60114 7.48827 6.72339 7.50344 6.84376C7.5186 6.96412 7.56274 7.07901 7.63206 7.17857C7.70138 7.27813 7.79382 7.35939 7.90145 7.41537C8.00908 7.47135 8.12868 7.50039 8.24999 7.5H13.5C13.6419 7.49952 13.7811 7.53931 13.9013 7.61477C14.0215 7.69022 14.1178 7.79823 14.1791 7.92626C14.2403 8.05428 14.264 8.19706 14.2474 8.33801C14.2307 8.47895 14.1744 8.61228 14.085 8.7225L6.65999 16.3725C6.6043 16.4368 6.5284 16.4802 6.44476 16.4957C6.36112 16.5112 6.2747 16.4977 6.1997 16.4576C6.12469 16.4175 6.06556 16.3531 6.03199 16.2749C5.99843 16.1968 5.99244 16.1095 6.01499 16.0275L7.45499 11.5125C7.49746 11.3989 7.51172 11.2766 7.49655 11.1562C7.48139 11.0359 7.43725 10.921 7.36793 10.8214C7.2986 10.7219 7.20616 10.6406 7.09854 10.5846C6.99091 10.5286 6.87131 10.4996 6.74999 10.5H1.49999Z" stroke="#215BD9" stroke-width="1.5" stroke-linecap="round" stroke-linejoin="round"/>
</svg>
