<svg width="16" height="15" viewBox="0 0 16 15" fill="none" xmlns="http://www.w3.org/2000/svg">
<path d="M15.2819 13.717L14.217 14.7819C14.0765 14.9216 13.8864 15 13.6883 15C13.4902 15 13.3001 14.9216 13.1596 14.7819L4.2503 5.88727C4.00644 5.95801 3.75423 5.99584 3.50036 5.99976C3.02287 5.99942 2.55237 5.8851 2.12796 5.6663C1.70355 5.4475 1.3375 5.13054 1.06025 4.74178C0.782992 4.35302 0.602541 3.90369 0.533897 3.43115C0.465253 2.95861 0.510399 2.4765 0.665581 2.02492L2.57043 3.92984L2.9679 3.53236L4.03281 2.4674L4.43028 2.06992L2.52543 0.164993C2.977 0.00980456 3.45908 -0.0353433 3.93161 0.0333035C4.40413 0.10195 4.85345 0.282408 5.24219 0.559674C5.63093 0.83694 5.94788 1.203 6.16667 1.62743C6.38546 2.05185 6.49978 2.52238 6.50012 2.99988C6.4962 3.25377 6.45837 3.50599 6.38763 3.74985L15.2819 12.6595C15.4216 12.8 15.5 12.9901 15.5 13.1882C15.5 13.3864 15.4216 13.5764 15.2819 13.717ZM0.718077 12.6595C0.5784 12.8 0.5 12.9901 0.5 13.1882C0.5 13.3864 0.5784 13.5764 0.718077 13.717L1.78299 14.7819C1.9235 14.9216 2.11358 15 2.3117 15C2.50982 15 2.6999 14.9216 2.84041 14.7819L6.94258 10.6871L4.82025 8.56466M13.9995 0L10.9998 1.49994V2.99988L9.37239 4.62732L10.8723 6.12726L12.4996 4.49982H13.9995L15.4994 1.49994L13.9995 0Z" fill="#215BD9"/>
</svg>
