<svg width="18" height="20" viewBox="0 0 18 20" fill="none" xmlns="http://www.w3.org/2000/svg">
<path d="M7.21051 17.8501C7.36654 18.1237 7.59095 18.3509 7.86119 18.5089C8.13142 18.6668 8.43796 18.75 8.75 18.75C9.06204 18.75 9.36858 18.6668 9.63881 18.5089C9.90905 18.3509 10.1335 18.1237 10.2895 17.8501M10.453 1.03273C9.65084 0.759016 8.7958 0.682593 7.95864 0.809781C7.12148 0.936969 6.32625 1.26411 5.63871 1.76416C4.95116 2.26421 4.39106 2.9228 4.0047 3.68547C3.61835 4.44814 3.41686 5.29297 3.41688 6.15012C3.41688 10.1992 2.16271 11.5105 0.98142 12.7444C0.86549 12.8734 0.78908 13.0337 0.761482 13.2059C0.733884 13.3781 0.756288 13.5546 0.825969 13.7142C0.895651 13.8737 1.00961 14.0092 1.15398 14.1044C1.29835 14.1995 1.46691 14.2502 1.63917 14.2501H15.8608C16.0331 14.2502 16.2017 14.1995 16.346 14.1044C16.4904 14.0092 16.6043 13.8737 16.674 13.7142C16.7437 13.5546 16.7661 13.3781 16.7385 13.2059C16.7109 13.0337 16.6345 12.8734 16.5186 12.7444C16.3357 12.5537 16.1621 12.3539 15.9986 12.1459M16.7497 6.15012C16.7497 7.64128 15.5558 8.85011 14.0831 8.85011C12.6104 8.85011 11.4166 7.64128 11.4166 6.15012C11.4166 4.65895 12.6104 3.45012 14.0831 3.45012C15.5558 3.45012 16.7497 4.65895 16.7497 6.15012Z" stroke="black" stroke-width="1.5" stroke-linecap="round" stroke-linejoin="round"/>
</svg>
