<svg width="18" height="20" viewBox="0 0 18 20" fill="none" xmlns="http://www.w3.org/2000/svg">
<path d="M1.01667 5.24862L8.75 9.74908M8.75 9.74908L16.4833 5.24862M8.75 9.74908V18.75M16.75 6.14871C16.7497 5.83302 16.6674 5.52297 16.5114 5.24966C16.3554 4.97635 16.1311 4.74939 15.8611 4.59155L9.63889 0.991179C9.36863 0.83318 9.06207 0.75 8.75 0.75C8.43793 0.75 8.13137 0.83318 7.86111 0.991179L1.63889 4.59155C1.3689 4.74939 1.14465 4.97635 0.988632 5.24966C0.832616 5.52297 0.75032 5.83302 0.75 6.14871V13.3494C0.75032 13.6651 0.832616 13.9752 0.988632 14.2485C1.14465 14.5218 1.3689 14.7488 1.63889 14.9066L7.86111 18.507C8.13137 18.665 8.43793 18.7482 8.75 18.7482C9.06207 18.7482 9.36863 18.665 9.63889 18.507L15.8611 14.9066C16.1311 14.7488 16.3554 14.5218 16.5114 14.2485C16.6674 13.9752 16.7497 13.6651 16.75 13.3494V6.14871Z" stroke="black" stroke-width="1.5" stroke-linecap="round" stroke-linejoin="round"/>
</svg>
