<svg width="18" height="22" viewBox="0 0 18 22" fill="none" xmlns="http://www.w3.org/2000/svg">
<path d="M12.75 2.75H14.75C15.2804 2.75 15.7891 2.96071 16.1642 3.33579C16.5393 3.71086 16.75 4.21957 16.75 4.75V18.75C16.75 19.2804 16.5393 19.7891 16.1642 20.1642C15.7891 20.5393 15.2804 20.75 14.75 20.75H2.75C2.21957 20.75 1.71086 20.5393 1.33579 20.1642C0.960714 19.7891 0.75 19.2804 0.75 18.75V4.75C0.75 4.21957 0.960714 3.71086 1.33579 3.33579C1.71086 2.96071 2.21957 2.75 2.75 2.75H4.75M5.75 12.75L7.75 14.75L11.75 10.75M5.75 0.75H11.75C12.3023 0.75 12.75 1.19772 12.75 1.75V3.75C12.75 4.30228 12.3023 4.75 11.75 4.75H5.75C5.19772 4.75 4.75 4.30228 4.75 3.75V1.75C4.75 1.19772 5.19772 0.75 5.75 0.75Z" stroke="black" stroke-width="1.5" stroke-linecap="round" stroke-linejoin="round"/>
</svg>
