<svg width="16" height="15" viewBox="0 0 16 15" fill="none" xmlns="http://www.w3.org/2000/svg">
<path d="M2.18458 15C1.47846 15 0.976707 14.6842 0.679308 14.0525C0.381908 13.4208 0.454458 12.8339 0.896958 12.2917L5.50748 6.66667V1.66667H4.67675C4.44138 1.66667 4.24422 1.58667 4.08528 1.42667C3.92633 1.26667 3.84658 1.06889 3.84603 0.833333C3.84548 0.597778 3.92523 0.4 4.08528 0.24C4.24533 0.0800001 4.44249 0 4.67675 0H11.3225C11.5579 0 11.7554 0.0800001 11.9149 0.24C12.0744 0.4 12.1538 0.597778 12.1533 0.833333C12.1527 1.06889 12.073 1.26694 11.914 1.4275C11.7551 1.58806 11.5579 1.66778 11.3225 1.66667H10.4918V6.66667L15.1023 12.2917C15.5454 12.8333 15.6182 13.4203 15.3208 14.0525C15.0234 14.6847 14.5214 15.0006 13.8147 15H2.18458Z" fill="#215BD9"/>
</svg>
