<svg width="18" height="20" viewBox="0 0 18 20" fill="none" xmlns="http://www.w3.org/2000/svg">
<path d="M6.91969 2.91014C6.9689 2.38751 7.20939 1.90217 7.59416 1.54895C7.97893 1.19573 8.48035 1 9.00045 1C9.52054 1 10.022 1.19573 10.4067 1.54895C10.7915 1.90217 11.032 2.38751 11.0812 2.91014C11.1108 3.24775 11.2205 3.57321 11.4011 3.85895C11.5817 4.14469 11.8278 4.38231 12.1186 4.55169C12.4095 4.72108 12.7365 4.81724 13.0719 4.83204C13.4074 4.84685 13.7414 4.77985 14.0458 4.63674C14.5184 4.42015 15.054 4.38881 15.5482 4.54882C16.0424 4.70882 16.46 5.04873 16.7197 5.50238C16.9793 5.95603 17.0625 6.49097 16.9529 7.00309C16.8434 7.51521 16.549 7.96786 16.127 8.27295C15.8522 8.46757 15.6279 8.72611 15.4731 9.02673C15.3182 9.32734 15.2374 9.66118 15.2374 10C15.2374 10.3388 15.3182 10.6727 15.4731 10.9733C15.6279 11.2739 15.8522 11.5324 16.127 11.727C16.549 12.0321 16.8434 12.4848 16.9529 12.9969C17.0625 13.509 16.9793 14.044 16.7197 14.4976C16.46 14.9513 16.0424 15.2912 15.5482 15.4512C15.054 15.6112 14.5184 15.5799 14.0458 15.3633C13.7414 15.2201 13.4074 15.1532 13.0719 15.168C12.7365 15.1828 12.4095 15.2789 12.1186 15.4483C11.8278 15.6177 11.5817 15.8553 11.4011 16.1411C11.2205 16.4268 11.1108 16.7522 11.0812 17.0899C11.032 17.6125 10.7915 18.0978 10.4067 18.451C10.022 18.8043 9.52054 19 9.00045 19C8.48035 19 7.97893 18.8043 7.59416 18.451C7.20939 18.0978 6.9689 17.6125 6.91969 17.0899C6.89016 16.7521 6.78043 16.4265 6.5998 16.1407C6.41916 15.8549 6.17293 15.6172 5.88198 15.4478C5.59102 15.2784 5.2639 15.1822 4.92833 15.1675C4.59275 15.1528 4.25861 15.22 3.9542 15.3633C3.48159 15.5799 2.94605 15.6112 2.4518 15.4512C1.95756 15.2912 1.53998 14.9513 1.28033 14.4976C1.02068 14.044 0.93754 13.509 1.04709 12.9969C1.15664 12.4848 1.45104 12.0321 1.873 11.727C2.14777 11.5324 2.37207 11.2739 2.52691 10.9733C2.68176 10.6727 2.7626 10.3388 2.7626 10C2.7626 9.66118 2.68176 9.32734 2.52691 9.02673C2.37207 8.72611 2.14777 8.46757 1.873 8.27295C1.45163 7.96771 1.15775 7.51523 1.04847 7.00346C0.939182 6.49169 1.0223 5.95719 1.28167 5.50383C1.54104 5.05047 1.95813 4.71065 2.45188 4.5504C2.94564 4.39015 3.48078 4.42092 3.95331 4.63674C4.25768 4.77985 4.59173 4.84685 4.92718 4.83204C5.26264 4.81724 5.58962 4.72108 5.88046 4.55169C6.1713 4.38231 6.41743 4.14469 6.59801 3.85895C6.7786 3.57321 6.88832 3.24775 6.9179 2.91014M11.6797 10.0005C11.6797 11.4943 10.4799 12.7053 9 12.7053C7.52006 12.7053 6.32034 11.4943 6.32034 10.0005C6.32034 8.5066 7.52006 7.2956 9 7.2956C10.4799 7.2956 11.6797 8.5066 11.6797 10.0005Z" stroke="black" stroke-width="2" stroke-linecap="round" stroke-linejoin="round"/>
</svg>
