<svg width="24" height="24" viewBox="0 0 24 24" fill="none" xmlns="http://www.w3.org/2000/svg">
<path d="M14 21V18C14 17.4696 13.7893 16.9609 13.4142 16.5858C13.0391 16.2107 12.5304 16 12 16C11.4696 16 10.9609 16.2107 10.5858 16.5858C10.2107 16.9609 10 17.4696 10 18V21M18 12H18.01M18 16H18.01M6 12H6.01M6 16H6.01M22 7.00003C22 6.73481 21.8946 6.48046 21.7071 6.29292C21.5196 6.10539 21.2652 6.00003 21 6.00003H19C18.5913 5.99997 18.1924 5.87468 17.857 5.64103L13.143 2.36003C12.8077 2.1263 12.4089 2.00091 12.0002 2.00073C11.5914 2.00055 11.1925 2.1256 10.857 2.35903L6.143 5.64003C5.80775 5.87403 5.40884 5.99968 5 6.00003H3C2.73478 6.00003 2.48043 6.10539 2.29289 6.29292C2.10536 6.48046 2 6.73481 2 7.00003V19C2 19.5305 2.21071 20.0392 2.58579 20.4142C2.96086 20.7893 3.46957 21 4 21H20C20.5304 21 21.0391 20.7893 21.4142 20.4142C21.7893 20.0392 22 19.5305 22 19V7.00003ZM14 10C14 11.1046 13.1046 12 12 12C10.8954 12 10 11.1046 10 10C10 8.89546 10.8954 8.00003 12 8.00003C13.1046 8.00003 14 8.89546 14 10Z" stroke="black" stroke-width="2" stroke-linecap="round" stroke-linejoin="round"/>
</svg>
